<?xml version="1.0" encoding="utf-8"?>
<svg viewBox="0 0 140 348" xmlns="http://www.w3.org/2000/svg">
  <g transform="matrix(1, 0, 0, 1, 482.566803, -58.283222)">
    <path style="fill: rgb(255, 128, 0);" d="M -403.165 137.805 C -403.165 119.032 -387.805 103.672 -369.032 103.672 L -369.032 85.752 C -369.032 77.219 -375.859 69.539 -385.245 69.539 L -438.152 69.539 C -447.539 69.539 -454.365 76.366 -454.365 85.752 L -454.365 359.672 L -369.032 359.672 L -369.032 171.939 C -387.805 171.939 -403.165 156.579 -403.165 137.805"/>
    <g transform="matrix(1, 0, 0, 1, -478.965088, -24.328457)">
      <path style="fill: rgb(255, 128, 0);" d="M117.613,418.133H16.92c-5.12,0-9.387-4.267-9.387-9.387V394.24c0-5.973,4.267-10.24,9.387-10.24 h99.84c5.12,0,9.387,4.267,9.387,9.387v14.507C127,413.867,122.733,418.133,117.613,418.133"/>
    </g>
    <path d="M -361.352 402.339 L -462.045 402.339 C -471.432 402.339 -479.965 393.806 -479.965 384.419 L -479.965 369.912 C -479.965 359.672 -471.432 351.139 -462.045 351.139 L -362.205 351.139 C -351.965 351.139 -344.285 359.672 -344.285 369.059 L -344.285 383.566 C -343.432 393.805 -351.965 402.339 -361.352 402.339 Z M -462.045 368.205 L -462.898 369.058 L -462.898 383.565 C -462.898 384.418 -462.045 385.272 -462.045 385.272 L -362.205 385.272 C -361.352 385.272 -361.352 384.419 -361.352 384.419 L -361.352 369.912 C -361.352 369.059 -362.205 369.059 -362.205 369.059 L -462.045 369.059 L -462.045 368.205 Z"/>
    <path style="fill:#FFFFFF;" d="M -421.085 69.539 L -438.152 69.539 C -447.539 69.539 -454.365 76.366 -454.365 85.752 L -454.365 359.672 L -437.298 359.672 L -437.298 85.752 C -437.298 76.365 -430.472 69.539 -421.085 69.539"/>
    <path d="M -360.498 368.205 L -462.898 368.205 L -462.898 85.752 C -462.898 72.099 -451.805 61.005 -438.151 61.005 L -385.245 61.005 C -371.592 61.005 -360.498 72.098 -360.498 85.752 L -360.498 112.205 L -369.031 112.205 C -383.538 112.205 -394.631 123.298 -394.631 137.805 C -394.631 152.312 -383.538 163.405 -369.031 163.405 L -360.498 163.405 L -360.498 368.205 Z M -445.832 351.139 L -377.565 351.139 L -377.565 179.619 C -397.192 175.352 -411.698 158.286 -411.698 137.806 C -411.698 117.326 -397.191 100.259 -377.565 95.993 L -377.565 85.753 C -377.565 81.486 -380.978 78.073 -385.245 78.073 L -438.152 78.073 C -442.419 78.073 -445.832 81.486 -445.832 85.753 L -445.832 351.139 Z"/>
  </g>
</svg>