<?xml version="1.0" encoding="utf-8"?>
<svg viewBox="0 0 460 100" xmlns="http://www.w3.org/2000/svg">
  <g transform="matrix(1, 0, 0, 1, -1.742497, -141.470795)">
    <path style="fill: rgb(205, 15, 15);" d="M 434.628 208.183 L 83.907 208.183 L 83.907 174.05 L 434.628 174.05 C 438.895 174.05 442.308 177.463 442.308 181.73 L 442.308 200.503 C 442.308 204.77 438.894 208.183 434.628 208.183" transform="matrix(1, 0.000001, -0.000001, 1, 0.000191, -0.000263)"/>
    <path style="fill: rgb(255, 255, 255);" d="M 434.627 174.05 L 409.027 174.05 C 413.294 174.05 416.707 177.463 416.707 181.73 L 416.707 200.503 C 416.707 204.77 413.294 208.183 409.027 208.183 L 434.627 208.183 C 438.894 208.183 442.307 204.77 442.307 200.503 L 442.307 181.73 C 442.307 177.463 438.893 174.05 434.627 174.05" transform="matrix(1, 0.000001, -0.000001, 1, 0.000191, -0.000426)"/>
    <path style="fill: rgb(255, 128, 0);" d="M 88.89 194.252 C 88.89 213.025 73.53 228.385 54.757 228.385 C 35.984 228.385 20.623 213.026 20.623 194.252 C 20.623 175.478 35.983 160.119 54.756 160.119 C 73.529 160.119 88.89 175.479 88.89 194.252" transform="matrix(1, 0.000001, -0.000001, 1, 0.000194, -0.000055)"/>
    <path d="M 52.868 233.938 C 28.975 233.938 10.201 215.165 10.201 191.271 C 10.201 167.377 28.974 148.604 52.868 148.604 C 76.762 148.604 95.535 167.378 95.535 191.271 C 95.535 215.164 76.762 233.938 52.868 233.938 Z M 52.868 165.671 C 38.361 165.671 27.268 176.764 27.268 191.271 C 27.268 205.778 38.361 216.871 52.868 216.871 C 67.375 216.871 78.468 205.778 78.468 191.271 C 78.468 176.764 67.375 165.671 52.868 165.671 Z" transform="matrix(1, 0.000001, -0.000001, 1, 0.000191, -0.000053)"/>
    <path d="M 434.627 216.715 L 75.373 216.715 L 75.373 165.515 L 434.626 165.515 C 443.159 165.515 450.839 173.195 450.839 181.729 L 450.839 200.501 C 450.84 209.035 443.16 216.715 434.627 216.715 Z M 92.44 199.649 L 341.106 199.649 L 433.773 199.649 L 433.773 182.583 L 92.44 182.583 L 92.44 199.649 Z" transform="matrix(1, 0.000001, -0.000001, 1, 0.000191, -0.000263)"/>
    <rect x="212.018" y="138.126" transform="matrix(-0.707108, -0.707106, 0.707106, -0.707108, 201.479538, 462.249969)" width="17.067" height="48.64"/>
    <rect x="280.299" y="138.107" transform="matrix(-0.707108, -0.707106, 0.707106, -0.707108, 318.057556, 510.50061)" width="17.067" height="48.64"/>
    <rect x="348.555" y="138.106" transform="matrix(-0.707108, -0.707106, 0.707106, -0.707108, 434.579773, 558.762268)" width="17.067" height="48.64"/>
    <rect x="416.819" y="138.13" transform="matrix(-0.707108, -0.707106, 0.707106, -0.707108, 551.098511, 607.07373)" width="17.067" height="48.64"/>
  </g>
</svg>