<?xml version="1.0" encoding="utf-8"?>
<svg viewBox="0 0 240 80" xmlns="http://www.w3.org/2000/svg" xmlns:bx="https://boxy-svg.com">
  <g transform="matrix(0.949019, 0, 0, 0.949019, -1.594452, -136.18103)" style="">
    <path style="fill: rgb(205, 15, 15);" d="M 233.31 203.175 L 62.577 203.175 L 62.577 169.456 L 233.31 169.456 C 235.387 169.456 237.048 172.828 237.048 177.043 L 237.048 195.588 C 237.048 199.803 235.387 203.175 233.31 203.175" transform="matrix(1, 0.000001, -0.000001, 1, 0.000186, -0.000158)" bx:origin="0.556889 0.480127"/>
    <path style="fill: rgb(255, 160, 35);" d="M 183.132 203.726 L 132.917 203.726 L 132.917 170.007 L 183.132 170.007 C 183.743 170.007 184.232 173.379 184.232 177.594 L 184.232 196.139 C 184.232 200.354 183.743 203.726 183.132 203.726" transform="matrix(1, 0.000001, -0.000001, 1, 0.000186, -0.000158)" bx:origin="0.522675 0.463786"/>
    <path d="M 236.168 211.602 L 63.242 211.602 L 63.242 161.024 L 236.167 161.024 C 244.63 161.024 252.246 168.611 252.246 177.041 L 252.246 195.585 C 252.247 204.016 244.631 211.602 236.168 211.602 Z M 80.169 194.744 L 235.321 194.744 L 235.321 177.885 L 80.169 177.885 L 80.169 194.744 Z" transform="matrix(1, 0.000001, -0.000001, 1, 0.000186, -0.000158)" bx:origin="0.51055 0.4868"/>
    <path style="fill: rgb(255, 128, 0);" d="M 78.997 186.389 C 78.997 204.354 64.297 219.054 46.33 219.054 C 28.365 219.054 13.664 204.356 13.664 186.389 C 13.664 168.42 28.363 153.722 46.33 153.722 C 64.297 153.722 78.997 168.42 78.997 186.389" transform="matrix(1, 0.000001, -0.000001, 1, 0.000191, -0.000045)" bx:origin="0.46171 0.488634"/>
    <path d="M 45.95 228.187 C 22.348 228.187 3.803 209.644 3.803 186.039 C 3.803 162.433 22.346 143.89 45.95 143.89 C 69.555 143.89 88.1 162.435 88.1 186.039 C 88.1 209.642 69.555 228.187 45.95 228.187 Z M 45.95 160.75 C 31.62 160.75 20.663 171.707 20.663 186.039 C 20.663 200.371 31.62 211.329 45.95 211.329 C 60.284 211.329 71.242 200.371 71.242 186.039 C 71.242 171.707 60.284 160.75 45.95 160.75 Z" style="" transform="matrix(1, 0.000001, -0.000001, 1, 0.000191, -0.000045)" bx:origin="0.47482 0.495337"/>
    <rect x="209.492" y="136.481" transform="matrix(-0.707271, -0.706942, 0.707269, -0.706945, 169.990082, 454.112122)" width="16.863" height="48.061" bx:origin="-0.733329 0.960242"/>
    <rect x="209.492" y="136.481" transform="matrix(-0.707271, -0.706942, 0.707269, -0.706945, 227.849365, 453.922516)" width="16.863" height="48.061" bx:origin="1.684345 0.106384"/>
  </g>
</svg>