<?xml version="1.0" encoding="utf-8"?>
<svg viewBox="0 0 240 80" xmlns="http://www.w3.org/2000/svg" xmlns:bx="https://boxy-svg.com">
  <g transform="matrix(0.949019, 0, 0, 0.949019, -1.594452, -136.18103)" style="">
    <path style="fill: rgb(205, 15, 15);" d="M 233.31 203.175 L 62.577 203.175 L 62.577 169.456 L 233.31 169.456 C 235.387 169.456 237.048 172.828 237.048 177.043 L 237.048 195.588 C 237.048 199.803 235.387 203.175 233.31 203.175" transform="matrix(1, 0.000001, -0.000001, 1, 0.000186, -0.000158)" bx:origin="0.556889 0.480127"/>
    <path style="fill: rgb(255, 160, 35);" d="M 183.132 203.726 L 132.917 203.726 L 132.917 170.007 L 183.132 170.007 C 183.743 170.007 184.232 173.379 184.232 177.594 L 184.232 196.139 C 184.232 200.354 183.743 203.726 183.132 203.726" transform="matrix(1, 0.000001, -0.000001, 1, 0.000186, -0.000158)" bx:origin="0.522675 0.463786"/>
    <path d="M 236.168 211.602 L 63.242 211.602 L 63.242 161.024 L 236.167 161.024 C 244.63 161.024 252.246 168.611 252.246 177.041 L 252.246 195.585 C 252.247 204.016 244.631 211.602 236.168 211.602 Z M 80.169 194.744 L 235.321 194.744 L 235.321 177.885 L 80.169 177.885 L 80.169 194.744 Z" transform="matrix(1, 0.000001, -0.000001, 1, 0.000186, -0.000158)" bx:origin="0.51055 0.4868"/>
    <path style="fill: rgb(255, 128, 0);" d="M 64.794 185.264 C 64.794 196.043 55.974 204.863 45.194 204.863 C 34.415 204.863 25.595 196.044 25.595 185.264 C 25.595 174.483 34.414 165.664 45.194 165.664 C 55.974 165.664 64.794 174.483 64.794 185.264" transform="matrix(1, 0.000001, -0.000001, 1, 0.000185, -0.000044)" bx:origin="0.465162 0.509743"/>
    <path d="M 44.966 210.343 C 30.805 210.343 19.678 199.217 19.678 185.054 C 19.678 170.891 30.804 159.765 44.966 159.765 C 59.129 159.765 70.256 170.892 70.256 185.054 C 70.256 199.216 59.129 210.343 44.966 210.343 Z M 44.966 169.881 C 36.368 169.881 29.794 176.455 29.794 185.054 C 29.794 193.653 36.368 200.228 44.966 200.228 C 53.566 200.228 60.141 193.653 60.141 185.054 C 60.141 176.455 53.566 169.881 44.966 169.881 Z" style="" transform="matrix(1, 0.000001, -0.000001, 1, 0.000185, -0.000044)" bx:origin="0.477498 0.511693"/>
    <rect x="209.492" y="136.481" transform="matrix(-0.707271, -0.706942, 0.707269, -0.706945, 169.990082, 454.112122)" width="16.863" height="48.061" bx:origin="-0.733329 0.960242"/>
    <rect x="209.492" y="136.481" transform="matrix(-0.707271, -0.706942, 0.707269, -0.706945, 227.849365, 453.922516)" width="16.863" height="48.061" bx:origin="1.684345 0.106384"/>
  </g>
</svg>